<svg xmlns="http://www.w3.org/2000/svg" viewBox="28 18 112 112" width="112" height="112" style="fill-rule:evenodd;clip-rule:evenodd">
  <path d="M100.22,100.4C113.32,98.97 125.67,92.11 132.47,80.66C129.25,108.98 97.74,126.88 72.02,115.89C69.65,114.88 67.61,113.2 66.21,111.04C60.43,102.12 58.53,90.77 61.26,80.47C69.06,93.7 84.92,101.81 100.22,100.4Z" fill="#f3b01c" />
  <path d="M60.78,72.16C55.47,84.22 55.24,98.34 61.75,109.96C38.84,93.02 39.09,56.77 61.47,40C63.54,38.45 66,37.53 68.58,37.39C79.19,36.84 89.97,40.87 97.53,48.38C82.17,48.53 67.21,58.2 60.78,72.16Z" fill="#8d2676" />
  <path d="M104.94,52.09C97.19,41.47 85.06,34.24 71.77,34.02C97.46,22.56 129.06,41.14 132.5,68.61C132.82,71.16 132.4,73.76 131.25,76.06C126.45,85.64 117.55,93.07 107.15,95.82C114.77,81.93 113.83,64.96 104.94,52.09Z" fill="#ee342f" />
</svg>
