<svg xmlns="http://www.w3.org/2000/svg" viewBox="0 0 240 240" width="240" height="240">
  <defs>
    <linearGradient id="tg" x1="120" y1="0" x2="120" y2="240" gradientUnits="userSpaceOnUse">
      <stop offset="0" stop-color="#2aabee" />
      <stop offset="1" stop-color="#229ed9" />
    </linearGradient>
  </defs>
  <circle cx="120" cy="120" r="120" fill="url(#tg)" />
  <path fill="#fff" d="M66.964 121.08c31.06-13.526 51.764-22.444 62.112-26.754 29.563-12.296 35.706-14.43 39.71-14.502.88-.015 2.848.203 4.123 1.236 1.077.872 1.373 2.05 1.515 2.877.142.827.32 2.71.178 4.18-1.604 16.85-8.544 57.755-12.075 76.638-1.494 7.99-4.437 10.669-7.285 10.931-6.19.569-10.89-4.09-16.884-8.022-9.38-6.15-14.68-9.978-23.785-15.978-10.524-6.936-3.702-10.748 2.295-16.978 1.57-1.631 28.846-26.443 29.373-28.694.066-.282.127-1.331-.496-1.885s-1.542-.365-2.205-.215c-.94.213-15.897 10.099-44.87 29.657-4.245 2.915-8.09 4.335-11.534 4.26-3.797-.082-11.102-2.147-16.532-3.912-6.662-2.165-11.957-3.309-11.496-6.985.24-1.914 2.877-3.872 7.91-5.871z" />
</svg>
